<mxfile host="65bd71144e">
    <diagram id="uf-rkgwT_G_sKZQp3-fK" name="PÃ¡gina-1">
        <mxGraphModel dx="1468" dy="459" grid="1" gridSize="10" guides="1" tooltips="1" connect="1" arrows="1" fold="1" page="1" pageScale="1" pageWidth="827" pageHeight="1169" math="0" shadow="0">
            <root>
                <mxCell id="0"/>
                <mxCell id="1" parent="0"/>
                <mxCell id="4" value="" style="edgeStyle=none;html=1;fontColor=#000000;" parent="1" source="2" target="3" edge="1">
                    <mxGeometry relative="1" as="geometry"/>
                </mxCell>
                <mxCell id="2" value="&lt;b&gt;&lt;font color=&quot;#000000&quot;&gt;INICIO&lt;/font&gt;&lt;/b&gt;" style="ellipse;whiteSpace=wrap;html=1;fillColor=#fff2cc;strokeColor=#d6b656;gradientColor=#ffd966;" parent="1" vertex="1">
                    <mxGeometry x="220" y="150" width="120" height="80" as="geometry"/>
                </mxCell>
                <mxCell id="6" value="" style="edgeStyle=none;html=1;fontColor=#000000;" parent="1" source="3" target="5" edge="1">
                    <mxGeometry relative="1" as="geometry"/>
                </mxCell>
                <mxCell id="3" value="&lt;b&gt;&lt;font color=&quot;#000000&quot;&gt;X,Y&lt;/font&gt;&lt;/b&gt;" style="shape=parallelogram;perimeter=parallelogramPerimeter;whiteSpace=wrap;html=1;fixedSize=1;fillColor=#fff2cc;strokeColor=#d6b656;gradientColor=#ffd966;" parent="1" vertex="1">
                    <mxGeometry x="220" y="260" width="120" height="60" as="geometry"/>
                </mxCell>
                <mxCell id="31" value="" style="edgeStyle=none;html=1;fontColor=#000000;" parent="1" source="5" target="30" edge="1">
                    <mxGeometry relative="1" as="geometry">
                        <Array as="points">
                            <mxPoint x="600" y="405"/>
                        </Array>
                    </mxGeometry>
                </mxCell>
                <mxCell id="33" value="" style="edgeStyle=none;html=1;fontColor=#000000;" parent="1" source="5" target="32" edge="1">
                    <mxGeometry relative="1" as="geometry">
                        <Array as="points">
                            <mxPoint x="-40" y="400"/>
                        </Array>
                    </mxGeometry>
                </mxCell>
                <mxCell id="5" value="&lt;b&gt;&lt;font color=&quot;#000000&quot;&gt;x==0&lt;/font&gt;&lt;/b&gt;" style="rhombus;whiteSpace=wrap;html=1;fillColor=#fff2cc;strokeColor=#d6b656;gradientColor=#ffd966;" parent="1" vertex="1">
                    <mxGeometry x="235" y="360" width="90" height="90" as="geometry"/>
                </mxCell>
                <mxCell id="35" value="" style="edgeStyle=none;html=1;fontColor=#000000;" parent="1" source="30" target="34" edge="1">
                    <mxGeometry relative="1" as="geometry">
                        <Array as="points">
                            <mxPoint x="720" y="520"/>
                        </Array>
                    </mxGeometry>
                </mxCell>
                <mxCell id="39" value="" style="edgeStyle=none;html=1;fontColor=#000000;" parent="1" source="30" target="38" edge="1">
                    <mxGeometry relative="1" as="geometry">
                        <Array as="points">
                            <mxPoint x="480" y="520"/>
                            <mxPoint x="440" y="520"/>
                        </Array>
                    </mxGeometry>
                </mxCell>
                <mxCell id="30" value="&lt;font color=&quot;#000000&quot;&gt;&lt;b&gt;y=0&lt;/b&gt;&lt;/font&gt;" style="rhombus;whiteSpace=wrap;html=1;fillColor=#d5e8d4;strokeColor=#82b366;gradientColor=#97d077;" parent="1" vertex="1">
                    <mxGeometry x="560" y="480" width="80" height="80" as="geometry"/>
                </mxCell>
                <mxCell id="43" value="" style="edgeStyle=none;html=1;fontColor=#000000;" parent="1" source="32" target="42" edge="1">
                    <mxGeometry relative="1" as="geometry">
                        <Array as="points">
                            <mxPoint x="-160" y="520"/>
                        </Array>
                    </mxGeometry>
                </mxCell>
                <mxCell id="130" style="edgeStyle=none;html=1;entryX=0.43;entryY=0.029;entryDx=0;entryDy=0;entryPerimeter=0;" edge="1" parent="1" source="32" target="128">
                    <mxGeometry relative="1" as="geometry">
                        <Array as="points">
                            <mxPoint x="93" y="520"/>
                        </Array>
                    </mxGeometry>
                </mxCell>
                <mxCell id="32" value="&lt;b&gt;&lt;font color=&quot;#000000&quot;&gt;y=0&lt;/font&gt;&lt;/b&gt;" style="rhombus;whiteSpace=wrap;html=1;fillColor=#f8cecc;strokeColor=#b85450;gradientColor=#ea6b66;" parent="1" vertex="1">
                    <mxGeometry x="-80" y="480" width="80" height="80" as="geometry"/>
                </mxCell>
                <mxCell id="135" style="edgeStyle=none;html=1;fontColor=#000000;endArrow=none;endFill=0;entryX=1;entryY=0.5;entryDx=0;entryDy=0;" edge="1" parent="1" source="34" target="133">
                    <mxGeometry relative="1" as="geometry">
                        <mxPoint x="350" y="1070" as="targetPoint"/>
                        <Array as="points">
                            <mxPoint x="720" y="1080"/>
                        </Array>
                    </mxGeometry>
                </mxCell>
                <mxCell id="34" value="&lt;b&gt;&lt;font color=&quot;#000000&quot;&gt;ORIGEN&lt;/font&gt;&lt;/b&gt;" style="shape=document;whiteSpace=wrap;html=1;boundedLbl=1;fillColor=#d5e8d4;strokeColor=#82b366;gradientColor=#97d077;" parent="1" vertex="1">
                    <mxGeometry x="670" y="570" width="100" height="70" as="geometry"/>
                </mxCell>
                <mxCell id="138" style="edgeStyle=none;html=1;fontColor=#000000;endArrow=none;endFill=0;" edge="1" parent="1" source="38" target="133">
                    <mxGeometry relative="1" as="geometry">
                        <Array as="points">
                            <mxPoint x="320" y="630"/>
                        </Array>
                    </mxGeometry>
                </mxCell>
                <mxCell id="38" value="&lt;font color=&quot;#000000&quot;&gt;&lt;b&gt;&amp;nbsp;EJE Y&lt;/b&gt;&lt;/font&gt;" style="shape=document;whiteSpace=wrap;html=1;boundedLbl=1;fillColor=#d5e8d4;strokeColor=#82b366;gradientColor=#97d077;" parent="1" vertex="1">
                    <mxGeometry x="380" y="590" width="120" height="80" as="geometry"/>
                </mxCell>
                <mxCell id="58" value="" style="edgeStyle=none;html=1;fontColor=#000000;" parent="1" source="42" target="57" edge="1">
                    <mxGeometry relative="1" as="geometry">
                        <Array as="points">
                            <mxPoint x="-80" y="600"/>
                            <mxPoint x="-30" y="600"/>
                            <mxPoint y="600"/>
                        </Array>
                    </mxGeometry>
                </mxCell>
                <mxCell id="78" value="" style="edgeStyle=none;html=1;fontColor=#000000;" parent="1" source="42" target="77" edge="1">
                    <mxGeometry relative="1" as="geometry">
                        <Array as="points">
                            <mxPoint x="-360" y="600"/>
                        </Array>
                    </mxGeometry>
                </mxCell>
                <mxCell id="42" value="&lt;b&gt;&lt;font color=&quot;#000000&quot;&gt;x&amp;gt;0&lt;/font&gt;&lt;/b&gt;" style="rhombus;whiteSpace=wrap;html=1;fillColor=#f8cecc;strokeColor=#b85450;gradientColor=#ea6b66;" parent="1" vertex="1">
                    <mxGeometry x="-200" y="560" width="80" height="80" as="geometry"/>
                </mxCell>
                <mxCell id="69" value="" style="edgeStyle=none;html=1;fontColor=#000000;" parent="1" source="57" target="68" edge="1">
                    <mxGeometry relative="1" as="geometry">
                        <Array as="points">
                            <mxPoint x="150" y="690"/>
                        </Array>
                    </mxGeometry>
                </mxCell>
                <mxCell id="104" value="" style="edgeStyle=none;html=1;fontColor=#990000;" parent="1" source="57" target="103" edge="1">
                    <mxGeometry relative="1" as="geometry">
                        <Array as="points">
                            <mxPoint x="-120" y="690"/>
                        </Array>
                    </mxGeometry>
                </mxCell>
                <mxCell id="57" value="&lt;b&gt;&lt;font color=&quot;#000000&quot;&gt;y&amp;gt;0&lt;/font&gt;&lt;/b&gt;" style="rhombus;whiteSpace=wrap;html=1;fillColor=#f8cecc;strokeColor=#b85450;gradientColor=#ea6b66;" parent="1" vertex="1">
                    <mxGeometry x="-40" y="650" width="80" height="80" as="geometry"/>
                </mxCell>
                <mxCell id="139" style="edgeStyle=none;html=1;entryX=0.3;entryY=0.063;entryDx=0;entryDy=0;entryPerimeter=0;fontColor=#000000;endArrow=none;endFill=0;" edge="1" parent="1" source="68" target="133">
                    <mxGeometry relative="1" as="geometry">
                        <Array as="points">
                            <mxPoint x="296" y="760"/>
                        </Array>
                    </mxGeometry>
                </mxCell>
                <mxCell id="68" value="&lt;b&gt;&lt;font color=&quot;#000000&quot;&gt;I&lt;/font&gt;&lt;/b&gt;" style="shape=document;whiteSpace=wrap;html=1;boundedLbl=1;fillColor=#f8cecc;strokeColor=#b85450;gradientColor=#ea6b66;" parent="1" vertex="1">
                    <mxGeometry x="100" y="720" width="110" height="80" as="geometry"/>
                </mxCell>
                <mxCell id="80" value="" style="edgeStyle=none;html=1;fontColor=#000000;" parent="1" source="77" target="79" edge="1">
                    <mxGeometry relative="1" as="geometry">
                        <Array as="points">
                            <mxPoint x="-280" y="690"/>
                        </Array>
                    </mxGeometry>
                </mxCell>
                <mxCell id="82" value="" style="edgeStyle=none;html=1;fontColor=#000000;" parent="1" source="77" edge="1">
                    <mxGeometry relative="1" as="geometry">
                        <mxPoint x="-450" y="750" as="targetPoint"/>
                        <Array as="points">
                            <mxPoint x="-450" y="690"/>
                        </Array>
                    </mxGeometry>
                </mxCell>
                <mxCell id="77" value="&lt;b&gt;&lt;font color=&quot;#000000&quot;&gt;Y&amp;lt;0&lt;/font&gt;&lt;/b&gt;" style="rhombus;whiteSpace=wrap;html=1;fillColor=#f8cecc;strokeColor=#b85450;gradientColor=#ea6b66;" parent="1" vertex="1">
                    <mxGeometry x="-400" y="650" width="80" height="80" as="geometry"/>
                </mxCell>
                <mxCell id="79" value="&lt;b&gt;&lt;font color=&quot;#000000&quot;&gt;III&lt;/font&gt;&lt;/b&gt;" style="shape=document;whiteSpace=wrap;html=1;boundedLbl=1;fillColor=#f8cecc;strokeColor=#b85450;gradientColor=#ea6b66;" parent="1" vertex="1">
                    <mxGeometry x="-340" y="750" width="120" height="80" as="geometry"/>
                </mxCell>
                <mxCell id="83" value="&lt;b&gt;&lt;font color=&quot;#009999&quot;&gt;VERDADERO.&lt;/font&gt;&lt;/b&gt;" style="text;html=1;align=center;verticalAlign=middle;resizable=0;points=[];autosize=1;strokeColor=none;fillColor=none;fontColor=#000000;" parent="1" vertex="1">
                    <mxGeometry x="380" y="370" width="100" height="20" as="geometry"/>
                </mxCell>
                <mxCell id="84" value="&lt;b&gt;&lt;font color=&quot;#990000&quot;&gt;FALSO.&lt;/font&gt;&lt;/b&gt;" style="text;html=1;align=center;verticalAlign=middle;resizable=0;points=[];autosize=1;strokeColor=none;fillColor=none;fontColor=#33001A;" parent="1" vertex="1">
                    <mxGeometry x="90" y="370" width="60" height="20" as="geometry"/>
                </mxCell>
                <mxCell id="85" value="&lt;font color=&quot;#990000&quot;&gt;&lt;b&gt;FAL.SO.&lt;/b&gt;&lt;/font&gt;" style="text;html=1;align=center;verticalAlign=middle;resizable=0;points=[];autosize=1;strokeColor=none;fillColor=none;fontColor=#009999;" parent="1" vertex="1">
                    <mxGeometry x="-140" y="490" width="60" height="20" as="geometry"/>
                </mxCell>
                <mxCell id="87" value="&lt;font color=&quot;#009999&quot;&gt;VERDADERO.&lt;/font&gt;" style="text;html=1;align=center;verticalAlign=middle;resizable=0;points=[];autosize=1;strokeColor=none;fillColor=none;fontColor=#990000;" parent="1" vertex="1">
                    <mxGeometry x="35" y="490" width="90" height="20" as="geometry"/>
                </mxCell>
                <mxCell id="88" value="&lt;b&gt;&lt;font color=&quot;#990000&quot;&gt;FALSO.&lt;/font&gt;&lt;/b&gt;" style="text;html=1;align=center;verticalAlign=middle;resizable=0;points=[];autosize=1;strokeColor=none;fillColor=none;fontColor=#000000;" parent="1" vertex="1">
                    <mxGeometry x="-300" y="570" width="60" height="20" as="geometry"/>
                </mxCell>
                <mxCell id="89" value="&lt;b&gt;&lt;font color=&quot;#009999&quot;&gt;VERDADERO&lt;/font&gt;&lt;/b&gt;." style="text;html=1;align=center;verticalAlign=middle;resizable=0;points=[];autosize=1;strokeColor=none;fillColor=none;fontColor=#990000;" parent="1" vertex="1">
                    <mxGeometry x="-120" y="570" width="100" height="20" as="geometry"/>
                </mxCell>
                <mxCell id="93" value="&lt;b&gt;&lt;font color=&quot;#990000&quot;&gt;FALSO.&lt;/font&gt;&lt;/b&gt;" style="text;html=1;align=center;verticalAlign=middle;resizable=0;points=[];autosize=1;strokeColor=none;fillColor=none;fontColor=#000000;" parent="1" vertex="1">
                    <mxGeometry x="-460" y="660" width="60" height="20" as="geometry"/>
                </mxCell>
                <mxCell id="94" value="&lt;font color=&quot;#009999&quot;&gt;&lt;b&gt;VERDADERO.&lt;/b&gt;&lt;/font&gt;" style="text;html=1;align=center;verticalAlign=middle;resizable=0;points=[];autosize=1;strokeColor=none;fillColor=none;fontColor=#990000;" parent="1" vertex="1">
                    <mxGeometry x="-330" y="660" width="100" height="20" as="geometry"/>
                </mxCell>
                <mxCell id="131" style="edgeStyle=none;html=1;fontColor=#000000;endArrow=none;endFill=0;entryX=0;entryY=0.5;entryDx=0;entryDy=0;" edge="1" parent="1" source="96" target="133">
                    <mxGeometry relative="1" as="geometry">
                        <mxPoint x="200" y="1080" as="targetPoint"/>
                        <Array as="points">
                            <mxPoint x="-440" y="1080"/>
                            <mxPoint x="-110" y="1080"/>
                            <mxPoint x="180" y="1080"/>
                        </Array>
                    </mxGeometry>
                </mxCell>
                <mxCell id="96" value="&lt;div style=&quot;text-align: left&quot;&gt;&lt;b&gt;&lt;font color=&quot;#000000&quot;&gt;II&lt;/font&gt;&lt;/b&gt;&lt;/div&gt;" style="shape=document;whiteSpace=wrap;html=1;boundedLbl=1;fillColor=#f8cecc;strokeColor=#b85450;gradientColor=#ea6b66;" parent="1" vertex="1">
                    <mxGeometry x="-500" y="750" width="120" height="80" as="geometry"/>
                </mxCell>
                <mxCell id="97" value="&lt;b&gt;&lt;font color=&quot;#009999&quot;&gt;VERDADERO&lt;/font&gt;&lt;/b&gt;." style="text;html=1;align=center;verticalAlign=middle;resizable=0;points=[];autosize=1;strokeColor=none;fillColor=none;fontColor=#000000;" parent="1" vertex="1">
                    <mxGeometry x="40" y="670" width="100" height="20" as="geometry"/>
                </mxCell>
                <mxCell id="103" value="&lt;b&gt;&lt;font color=&quot;#000000&quot;&gt;IV&lt;/font&gt;&lt;/b&gt;" style="shape=document;whiteSpace=wrap;html=1;boundedLbl=1;fillColor=#f8cecc;strokeColor=#b85450;gradientColor=#ea6b66;" parent="1" vertex="1">
                    <mxGeometry x="-180" y="720" width="120" height="80" as="geometry"/>
                </mxCell>
                <mxCell id="105" value="&lt;b&gt;FALSO.&lt;/b&gt;" style="text;html=1;align=center;verticalAlign=middle;resizable=0;points=[];autosize=1;strokeColor=none;fillColor=none;fontColor=#990000;" parent="1" vertex="1">
                    <mxGeometry x="-100" y="670" width="60" height="20" as="geometry"/>
                </mxCell>
                <mxCell id="107" value="&lt;b&gt;&lt;font color=&quot;#009999&quot;&gt;VERDADERO&lt;/font&gt;&lt;/b&gt;." style="text;html=1;align=center;verticalAlign=middle;resizable=0;points=[];autosize=1;strokeColor=none;fillColor=none;fontColor=#000000;" parent="1" vertex="1">
                    <mxGeometry x="650" y="490" width="100" height="20" as="geometry"/>
                </mxCell>
                <mxCell id="108" value="&lt;font color=&quot;#990000&quot;&gt;&lt;b&gt;FALSO&lt;/b&gt;.&lt;/font&gt;" style="text;html=1;align=center;verticalAlign=middle;resizable=0;points=[];autosize=1;strokeColor=none;fillColor=none;fontColor=#009999;" parent="1" vertex="1">
                    <mxGeometry x="490" y="490" width="60" height="20" as="geometry"/>
                </mxCell>
                <mxCell id="128" value="&lt;b&gt;&lt;font color=&quot;#000000&quot;&gt;EJE X&lt;/font&gt;&lt;/b&gt;" style="shape=document;whiteSpace=wrap;html=1;boundedLbl=1;fillColor=#FFCCE6;gradientColor=#FF6666;" vertex="1" parent="1">
                    <mxGeometry x="50" y="550" width="100" height="70" as="geometry"/>
                </mxCell>
                <mxCell id="133" value="&lt;b&gt;&lt;font color=&quot;#000000&quot;&gt;FIN&lt;/font&gt;&lt;/b&gt;" style="ellipse;whiteSpace=wrap;html=1;fillColor=#fff2cc;strokeColor=#d6b656;gradientColor=#ffd966;" vertex="1" parent="1">
                    <mxGeometry x="260" y="1040" width="120" height="80" as="geometry"/>
                </mxCell>
            </root>
        </mxGraphModel>
    </diagram>
</mxfile>